<svg width="101.000000" height="102.000000" viewBox="0 0 101 102" fill="none" xmlns="http://www.w3.org/2000/svg" xmlns:xlink="http://www.w3.org/1999/xlink">
	<desc>
			Created with Pixso.
	</desc>
	<defs>
		<linearGradient x1="49.996613" y1="-0.998840" x2="49.996613" y2="101.926903" id="paint_linear_1_6_0" gradientUnits="userSpaceOnUse">
			<stop stop-color="#C0B7E8"/>
			<stop offset="1.000000" stop-color="#8176AF"/>
		</linearGradient>
	</defs>
	<path id="Vector" d="M99.77 40.25C101.1 47.97 92.91 45.91 92.91 45.91C89.48 36.25 83.99 37.15 83.99 37.15C88.29 40.29 88.61 42.96 88.61 42.96C77.17 34.84 61.6 41.37 55.68 44.44C52.36 39.75 45.64 29.25 48.03 24.49C51.17 18.25 57.56 21.82 57.56 21.82C70.49 21.61 69.76 16.99 69.76 16.99C66.33 19.66 56.22 16.99 56.22 16.99C65 16.99 68.72 13.42 68.72 13.42C62.18 15.04 54.89 8.08 54.89 8.08C52.22 -5.59 39.87 0.22 39.87 0.22C47.59 -1.11 45.54 7.07 45.54 7.07C35.86 10.5 36.76 15.98 36.76 15.98C39.9 11.69 42.58 11.37 42.58 11.37C33.73 23.81 42.25 41.12 44.78 45.63C40.16 48.84 29.32 55.9 24.45 53.45C18.2 50.31 21.78 43.93 21.78 43.93C21.63 31.02 17.01 31.74 17.01 31.74C19.68 35.17 17.01 45.27 17.01 45.27C17.01 36.5 13.44 32.79 13.44 32.79C15.06 39.32 8.09 46.6 8.09 46.6C-5.59 49.27 0.22 61.6 0.22 61.6C-1.11 53.89 7.08 55.94 7.08 55.94C10.51 65.61 16 64.7 16 64.7C11.7 61.57 11.38 58.9 11.38 58.9C23.48 67.48 40.19 59.69 45.25 56.95C48.64 61.82 54.96 71.85 52.61 76.5C49.47 82.74 43.08 79.17 43.08 79.17C30.15 79.31 30.88 83.93 30.88 83.93C34.31 81.26 44.42 83.93 44.42 83.93C35.64 83.93 31.92 87.5 31.92 87.5C38.46 85.87 45.75 92.83 45.75 92.83C48.42 106.5 60.77 100.7 60.77 100.7C53.05 102.03 55.1 93.84 55.1 93.84C64.78 90.42 63.88 84.94 63.88 84.94C60.74 89.23 58.06 89.55 58.06 89.55C66.73 77.4 58.75 60.56 56.04 55.62C60.95 52.19 70.88 46.06 75.47 48.37C81.71 51.5 78.14 57.89 78.14 57.89C78.28 70.8 82.91 70.08 82.91 70.08C80.23 66.65 82.91 56.55 82.91 56.55C82.91 65.32 86.48 69.03 86.48 69.03C84.86 62.5 91.82 55.22 91.82 55.22C105.58 52.59 99.77 40.25 99.77 40.25Z" fill="url(#paint_linear_1_6_0)" fill-opacity="1.000000" fill-rule="nonzero"/>
</svg>
