<svg width="41.000000" height="62.000000" viewBox="0 0 41 62" fill="none" xmlns="http://www.w3.org/2000/svg" xmlns:xlink="http://www.w3.org/1999/xlink">
	<desc>
			Created with Pixso.
	</desc>
	<defs/>
	<path id="Combined-Shape" d="M20 -0.17C31.27 -0.17 40.41 8.97 40.41 20.25C40.41 23.65 39.58 26.87 38.1 29.69L20 61.08L2.31 30.45C0.57 27.45 -0.42 23.96 -0.42 20.25C-0.42 8.97 8.72 -0.17 20 -0.17ZM20 5.66C11.94 5.66 5.41 12.19 5.41 20.25C5.41 22.56 5.95 24.78 6.96 26.79L7.45 27.68L20 49.41L32.63 27.53C33.9 25.34 34.58 22.85 34.58 20.25C34.58 12.19 28.05 5.66 20 5.66ZM20 11.5C24.83 11.5 28.75 15.41 28.75 20.25C28.75 25.08 24.83 29 20 29C15.16 29 11.25 25.08 11.25 20.25C11.25 15.41 15.16 11.5 20 11.5ZM20 17.33C18.38 17.33 17.08 18.63 17.08 20.25C17.08 21.86 18.38 23.16 20 23.16C21.61 23.16 22.91 21.86 22.91 20.25C22.91 18.63 21.61 17.33 20 17.33Z" fill="#C0B7E8" fill-opacity="1.000000" fill-rule="evenodd"/>
</svg>
